<svg xmlns="http://www.w3.org/2000/svg" viewBox="0 0 40 40"><path d="M24.7 23.7h-.9v-.5c0-.2.2-.4.4-.4h.1c.2 0 .4.2.4.4v.5zm-3.4-1.1c-.2 0-.4.1-.4.3v2.5c0 .2.2.3.4.3s.4-.1.4-.3v-2.5c0-.2-.2-.3-.4-.3zm5.5-1.4v4.7c0 1.2-1 2.1-2.2 2.1h-9.1c-1.2 0-2.2-.9-2.2-2.1v-4.7c0-1.2 1-2.1 2.2-2.1h9.1c1.1 0 2.1.9 2.2 2.1zm-10.7 5.3v-5h1.1v-.7h-3v.7h.9v5h1zm3.3-4.3h-.9V25.5c-.1.2-.4.4-.6 0V22.1H17V25.5c0 .3.1.5.2.7.5.2 1.1 0 1.4-.5v.5h.8v-4zm3 3.1v-2.2c0-.8-.6-1.3-1.5-.7v-1.6H20v5.7h.8l.1-.4c.9.8 1.5.2 1.5-.8zm3-.3h-.7v.5c0 .2-.2.4-.4.4h-.1c-.2 0-.4-.2-.4-.4v-1h1.6v-.6-1.1c-.2-.6-.9-.9-1.5-.7-.1 0-.2.1-.3.2-.2.1-.3.3-.4.5-.2.2-.2.5-.2.9V25c0 2.2 2.7 1.9 2.4 0zm-3.6-7.2c.1.1.1.2.2.3.1.1.2.1.4.1.1 0 .3 0 .4-.1l.3-.3v.4h1v-4.4h-.8v3.4c0 .2-.2.3-.3.3-.2 0-.3-.1-.3-.3v-3.4h-.9v3.8c-.1 0-.1.1 0 .2zm-3.2-2.5c0-.3 0-.7.1-1 .1-.5.6-.8 1.1-.8.2 0 .4 0 .6.1.2.1.3.2.4.4.1.1.1.3.2.5 0 .2.1.5.1.7v1.1c0 .3 0 .6-.1.9 0 .2-.1.4-.2.5-.1.2-.2.3-.4.4-.2.1-.4.1-.6.1-.2 0-.4 0-.6-.1-.2-.1-.3-.2-.4-.3-.1-.1-.2-.3-.2-.5 0-.3-.1-.6-.1-.9l.1-1.1zm.8 1.8c0 .2.2.4.4.4s.4-.2.4-.4v-2.3c0-.2-.2-.4-.4-.5-.2 0-.4.2-.4.5v2.3zm-2.9 1.2h1v-3.4l1.2-2.9h-1.1l-.6 2.1-.7-2.1h-1.1l1.2 2.9.1 3.4z"/></svg>